# xmcd CD database file
#
# Track frame offsets:
#	183
#	12858
#	25008
#	90213
#	150783
#	165708
#	180283
#	206008
#	242133
#	265208
#	292158
#
# Disc length: 4162 seconds
#
# Revision: 2
# Processed by: cddbd v1.5.2PL0 Copyright (c) Steve Scherf et al.
# Submitted via: CDex 1.51
#
DISCID=7e10400b
DTITLE=Jay Jay Johnson - Jay Jay Johnson
DYEAR=1996
DGENRE=Jazz
TTITLE0=Fox Hunt
TTITLE1=Opus V
TTITLE2=Wee Dor (Blues Foe Some Bones)
TTITLE3=Walkin'
TTITLE4=We'll Be Together Again
TTITLE5=Bags' Groove
TTITLE6=Venetian Breeze
TTITLE7=Exactly Like You
TTITLE8=Village Blues
TTITLE9=Mohawk
TTITLE10=Soft Winds
EXTD=YEAR: 1996
EXTT0=
EXTT1=
EXTT2=
EXTT3=
EXTT4=
EXTT5=
EXTT6=
EXTT7=
EXTT8=
EXTT9=
EXTT10=
PLAYORDER=
